<?xml version="1.0" encoding="utf-8"?>
<!-- Generator: Adobe Illustrator 22.1.0, SVG Export Plug-In . SVG Version: 6.00 Build 0)  -->
<svg version="1.1" id="Layer_1" xmlns="http://www.w3.org/2000/svg" xmlns:xlink="http://www.w3.org/1999/xlink" x="0px" y="0px"
	 viewBox="0 0 36 36" style="enable-background:new 0 0 36 36;" xml:space="preserve">
<style type="text/css">
	.st0{fill:#2EC87A;}
</style>
<g>
	<path class="st0" d="M10.4,19c-0.6,0-1.1-0.4-1.1-1s0.5-1,1.1-1h15.2c0.6,0,1.1,0.4,1.1,1s-0.5,1-1.1,1H10.4z"/>
	<path class="st0" d="M11,18.7c-0.4,0.4-1,0.4-1.4,0.1c-0.4-0.4-0.4-1-0.1-1.4l5.5-6c0.4-0.4,1-0.4,1.4-0.1c0.4,0.4,0.4,1,0.1,1.4
		l0,0C16.5,12.7,11,18.7,11,18.7z"/>
	<path class="st0" d="M11,17.3c-0.4-0.4-1-0.4-1.4-0.1c-0.4,0.4-0.4,1-0.1,1.4l5.5,6c0.4,0.4,1,0.4,1.4,0.1c0.4-0.4,0.4-1,0.1-1.4
		C16.5,23.3,11,17.3,11,17.3z"/>
</g>
</svg>
