<?xml version="1.0" encoding="utf-8"?>
<!-- Generator: Adobe Illustrator 22.1.0, SVG Export Plug-In . SVG Version: 6.00 Build 0)  -->
<svg version="1.1" id="Layer_1" xmlns="http://www.w3.org/2000/svg" xmlns:xlink="http://www.w3.org/1999/xlink" x="0px" y="0px"
	 viewBox="0 0 36 36" style="enable-background:new 0 0 36 36;" xml:space="preserve">
<style type="text/css">
	.st0{fill:#2EC87A;}
</style>
<g>
	<path class="st0" d="M10.4,19c-0.6,0-1.1-0.4-1.1-1s0.5-1,1.1-1h15.2c0.6,0,1.1,0.4,1.1,1s-0.5,1-1.1,1H10.4z"/>
	<path class="st0" d="M19.5,12.7L19.5,12.7c-0.4-0.4-0.3-1,0.1-1.4c0.4-0.4,1-0.3,1.4,0.1l5.5,6c0.4,0.4,0.3,1-0.1,1.4
		c-0.4,0.4-1,0.3-1.4-0.1C25,18.7,19.5,12.7,19.5,12.7z"/>
	<path class="st0" d="M19.5,23.3c-0.4,0.4-0.3,1,0.1,1.4c0.4,0.4,1,0.3,1.4-0.1l5.5-6c0.4-0.4,0.3-1-0.1-1.4c-0.4-0.4-1-0.3-1.4,0.1
		C25,17.3,19.5,23.3,19.5,23.3z"/>
</g>
</svg>
