<?xml version="1.0" encoding="UTF-8"?>
<svg width="70px" height="70px" viewBox="0 0 70 70" version="1.1" xmlns="http://www.w3.org/2000/svg" xmlns:xlink="http://www.w3.org/1999/xlink">
    <!-- Generator: Sketch 51.1 (57501) - http://www.bohemiancoding.com/sketch -->
    <title>icn/Building Container</title>
    <desc>Created with Sketch.</desc>
    <defs></defs>
    <g id="Page-1" stroke="none" stroke-width="1" fill="none" fill-rule="evenodd">
        <g id="Style-Guide" transform="translate(-55.000000, -2089.000000)" fill="#F7564C">
            <g id="icn/building-contained" transform="translate(55.000000, 2089.000000)">
                <circle id="Oval-11" opacity="0.2" cx="35" cy="35" r="35"></circle>
                <g id="Group-18" stroke-width="1" transform="translate(21.000000, 21.000000)">
                    <path d="M6.3,3.3 L6.3,26 C6.3,26.7179702 5.71797017,27.3 5,27.3 C4.28202983,27.3 3.7,26.7179702 3.7,26 L3.7,2.90566038 C3.7,1.69559777 4.66786713,0.7 5.88043478,0.7 L22.1195652,0.7 C23.3321329,0.7 24.3,1.69559777 24.3,2.90566038 L24.3,26 C24.3,26.7179702 23.7179702,27.3 23,27.3 C22.2820298,27.3 21.7,26.7179702 21.7,26 L21.7,3.3 L6.3,3.3 Z" id="Stroke-1" fill-rule="nonzero" style="mix-blend-mode: multiply;"></path>
                    <path d="M11,10 L11.5555556,10 C12.1078403,10 12.5555556,9.55228475 12.5555556,9 L12.5555556,6 C12.5555556,5.44771525 12.1078403,5 11.5555556,5 L11,5 C10.4477153,5 10,5.44771525 10,6 L10,9 C10,9.55228475 10.4477153,10 11,10 Z" id="Stroke-8" style="mix-blend-mode: multiply;"></path>
                    <path d="M11,17 L11.5555556,17 C12.1078403,17 12.5555556,16.5522847 12.5555556,16 L12.5555556,13 C12.5555556,12.4477153 12.1078403,12 11.5555556,12 L11,12 C10.4477153,12 10,12.4477153 10,13 L10,16 C10,16.5522847 10.4477153,17 11,17 Z" id="Stroke-8-Copy" style="mix-blend-mode: multiply;"></path>
                    <path d="M17,10 L17.5555556,10 C18.1078403,10 18.5555556,9.55228475 18.5555556,9 L18.5555556,6 C18.5555556,5.44771525 18.1078403,5 17.5555556,5 L17,5 C16.4477153,5 16,5.44771525 16,6 L16,9 C16,9.55228475 16.4477153,10 17,10 Z" id="Stroke-8" style="mix-blend-mode: multiply;"></path>
                    <path d="M17,17 L17.5555556,17 C18.1078403,17 18.5555556,16.5522847 18.5555556,16 L18.5555556,13 C18.5555556,12.4477153 18.1078403,12 17.5555556,12 L17,12 C16.4477153,12 16,12.4477153 16,13 L16,16 C16,16.5522847 16.4477153,17 17,17 Z" id="Stroke-8-Copy" style="mix-blend-mode: multiply;"></path>
                    <path d="M13.22,27 L14.78,27 C15.3322847,27 15.78,26.5522847 15.78,26 L15.78,22 C15.78,21.4477153 15.3322847,21 14.78,21 L13.22,21 C12.6677153,21 12.22,21.4477153 12.22,22 L12.22,26 C12.22,26.5522847 12.6677153,27 13.22,27 Z" id="Stroke-8-Copy-2" style="mix-blend-mode: multiply;"></path>
                    <path d="M2,27.3 C1.28202983,27.3 0.7,26.7179702 0.7,26 C0.7,25.2820298 1.28202983,24.7 2,24.7 L26,24.7 C26.7179702,24.7 27.3,25.2820298 27.3,26 C27.3,26.7179702 26.7179702,27.3 26,27.3 L2,27.3 Z" id="Line" fill-rule="nonzero" style="mix-blend-mode: multiply;"></path>
                </g>
            </g>
        </g>
    </g>
</svg>