<svg xmlns="http://www.w3.org/2000/svg" width="70" height="70" viewBox="0 0 70 70">
    <g fill="#F7564C" fill-rule="evenodd">
        <circle cx="35" cy="35" r="35" opacity=".2"/>
        <path fill-rule="nonzero" d="M27.3 24.3V47a1.3 1.3 0 1 1-2.6 0V23.906c0-1.21.968-2.206 2.18-2.206h16.24c1.212 0 2.18.996 2.18 2.206V47a1.3 1.3 0 1 1-2.6 0V24.3H27.3z" style="mix-blend-mode:multiply"/>
        <path d="M32 31h.556a1 1 0 0 0 1-1v-3a1 1 0 0 0-1-1H32a1 1 0 0 0-1 1v3a1 1 0 0 0 1 1zM32 38h.556a1 1 0 0 0 1-1v-3a1 1 0 0 0-1-1H32a1 1 0 0 0-1 1v3a1 1 0 0 0 1 1zM38 31h.556a1 1 0 0 0 1-1v-3a1 1 0 0 0-1-1H38a1 1 0 0 0-1 1v3a1 1 0 0 0 1 1zM38 38h.556a1 1 0 0 0 1-1v-3a1 1 0 0 0-1-1H38a1 1 0 0 0-1 1v3a1 1 0 0 0 1 1zM34.22 48h1.56a1 1 0 0 0 1-1v-4a1 1 0 0 0-1-1h-1.56a1 1 0 0 0-1 1v4a1 1 0 0 0 1 1z" style="mix-blend-mode:multiply"/>
        <path fill-rule="nonzero" d="M23 48.3a1.3 1.3 0 1 1 0-2.6h24a1.3 1.3 0 1 1 0 2.6H23z" style="mix-blend-mode:multiply"/>
    </g>
</svg>
