<?xml version="1.0" encoding="utf-8"?>
<!-- Generator: Adobe Illustrator 22.1.0, SVG Export Plug-In . SVG Version: 6.00 Build 0)  -->
<svg version="1.1" id="_x31_" xmlns="http://www.w3.org/2000/svg" xmlns:xlink="http://www.w3.org/1999/xlink" x="0px" y="0px"
	 viewBox="0 0 50 50" style="enable-background:new 0 0 50 50;" xml:space="preserve">
<style type="text/css">
	.st0{display:none;}
	.st1{display:inline;fill:#53596C;}
	.st2{display:inline;fill:#1B1F2E;}
	.st3{display:inline;}
	.st4{fill:#F7564C;}
	.st5{fill:#EF1D17;}
	.st6{fill:#FAAE3C;}
	.st7{fill:#F5770E;}
</style>
<g id="_x31__1_" class="st0">
	<path class="st1" d="M15.5,20.4v2.5l9.1,5.2c0.2,0.1,0.4,0.1,0.5,0.1s0.4,0,0.5-0.1l8.8-5v-2.5L25.1,26L15.5,20.4L15.5,20.4"/>
	<path class="st1" d="M15.5,20.4v-1.6c0-0.2,0.1-0.3,0.3-0.3h18.3c0.2,0,0.3,0.1,0.3,0.3v1.7l0.3-0.2c0.2-0.1,0.4-0.1,0.5-0.1
		c0.4,0,0.7,0.2,0.9,0.5c0.3,0.5,0.1,1.2-0.4,1.5L34.3,23v8.3c0,0.2-0.1,0.3-0.3,0.3H15.8c-0.2,0-0.3-0.1-0.3-0.3v-8.4l-1-0.6
		c-0.5-0.3-0.7-1-0.4-1.5c0.2-0.4,0.5-0.6,0.9-0.6C15.2,20.1,15.3,20.3,15.5,20.4 M34.2,16.3H15.8c-1.3,0-2.5,1.2-2.5,2.5v12.5
		c0,1.4,1.1,2.5,2.5,2.5h18.3c1.4,0,2.5-1.1,2.5-2.5V18.8C36.7,17.5,35.5,16.3,34.2,16.3"/>
	<path class="st2" d="M15,20.1c-0.4,0-0.7,0.2-0.9,0.5c-0.3,0.6-0.2,1.3,0.4,1.6l1,0.6v-2.5C15.3,20.3,15.2,20.1,15,20.1 M35.3,20.1
		c-0.2,0-0.4,0-0.5,0.1l-0.3,0.2V23l1.4-0.8c0.5-0.3,0.7-1,0.4-1.5C36.1,20.4,35.7,20.1,35.3,20.1"/>
</g>
<g id="_x32_" class="st0">
	<title>icn/Email Active</title>
	<desc>Created with Sketch.</desc>
	<g class="st3">
		<path class="st4" d="M9.2,17.2v4.2l15.2,8.7c0.3,0.2,0.6,0.2,0.9,0.2s0.6-0.1,0.9-0.2l14.7-8.4v-4.2l-15.6,8.9L9.2,17.2L9.2,17.2"
			/>
		<path class="st4" d="M9.2,17.2v-2.6c0-0.3,0.2-0.6,0.6-0.6h30.6c0.3,0,0.6,0.2,0.6,0.6v2.9l0.5-0.3c0.3-0.2,0.6-0.2,0.9-0.2
			c0.6,0,1.2,0.3,1.6,0.9c0.5,0.9,0.2,2-0.7,2.5L41,21.7v13.8c0,0.3-0.2,0.6-0.6,0.6H9.7c-0.3,0-0.6-0.2-0.6-0.6V21.3l-1.7-1
			c-0.8-0.5-1.1-1.6-0.6-2.4C7.1,17.3,7.7,17,8.4,17C8.6,16.9,8.9,17,9.2,17.2 M40.3,10.4H9.7c-2.3,0-4.2,1.9-4.2,4.2v20.8
			c0,2.3,1.9,4.2,4.2,4.2h30.6c2.3,0,4.2-1.9,4.2-4.2V14.6C44.4,12.3,42.6,10.4,40.3,10.4"/>
		<path class="st5" d="M8.3,16.9c-0.6,0-1.2,0.3-1.6,0.9c-0.5,0.9-0.2,2,0.7,2.5l1.7,1v-4.1C8.9,17,8.6,16.9,8.3,16.9 M42.2,16.9
			c-0.3,0-0.6,0.1-0.9,0.2l-0.5,0.3v4.2l2.3-1.3c0.9-0.5,1.2-1.6,0.7-2.5C43.5,17.3,42.8,16.9,42.2,16.9"/>
	</g>
</g>
<g>
	<path class="st6" d="M16.3,5.7c0,1-0.8,1.7-1.7,1.7h-1.8v23.3c0,1,0.8,1.7,1.7,1.7h29.2c1,0,1.7-0.8,1.7-1.7c0-1-0.8-1.7-1.7-1.7
		H16.3V5.7L16.3,5.7"/>
	<path class="st6" d="M14.6,4H6.2C5.3,4,4.5,4.8,4.5,5.7c0,1,0.8,1.7,1.7,1.7h6.6V5.7C12.8,4.8,13.6,4,14.6,4s1.7,0.8,1.7,1.7l0,0
		C16.3,4.8,15.5,4,14.6,4"/>
	<path class="st7" d="M14.6,4c-1,0-1.7,0.8-1.7,1.7v1.7h1.7c1,0,1.7-0.8,1.7-1.7S15.5,4,14.6,4"/>
	<path class="st6" d="M39.6,8.4H25.7c-0.8,0-1.4,0.6-1.4,1.4v5.6h2.8v-4.2h11.1v4.2h-1.4c0.8,0,1.4,0.6,1.4,1.4v1.4h1.4
		c0.8,0,1.4-0.6,1.4-1.4v-7C41,9.1,40.3,8.4,39.6,8.4"/>
	<path class="st6" d="M24.3,15.4h-2.8c-0.8,0-1.4,0.6-1.4,1.4v6.9c0,0.8,0.6,1.4,1.4,1.4h15.3c0.8,0,1.4-0.6,1.4-1.4v-5.6h-2.8v4.2
		H22.9v-4.2h2.8c-0.8,0-1.4-0.6-1.4-1.4V15.4"/>
	<path class="st7" d="M36.8,15.4h-9.7h-2.8v1.4c0,0.8,0.6,1.4,1.4,1.4h9.7h2.8v-1.4C38.3,16.1,37.6,15.4,36.8,15.4"/>
	<path class="st6" d="M39.6,42.7c-1.2,0-2.2-1-2.2-2.2s1-2.2,2.2-2.2s2.2,1,2.2,2.2S40.8,42.7,39.6,42.7 M39.6,34.9
		c-3.1,0-5.6,2.5-5.6,5.6c0,3.1,2.5,5.6,5.6,5.6c3.1,0,5.6-2.5,5.6-5.6C45.1,37.3,42.6,34.9,39.6,34.9"/>
	<path class="st6" d="M17.4,42.7c-1.2,0-2.2-1-2.2-2.2s1-2.2,2.2-2.2c1.2,0,2.2,1,2.2,2.2S18.6,42.7,17.4,42.7 M17.4,34.9
		c-3.1,0-5.6,2.5-5.6,5.6c0,3.1,2.5,5.6,5.6,5.6s5.6-2.5,5.6-5.6C22.9,37.3,20.4,34.9,17.4,34.9"/>
</g>
</svg>
