<svg xmlns="http://www.w3.org/2000/svg" width="70" height="70" viewBox="0 0 70 70">
    <g fill="#2EC87A" fill-rule="evenodd">
        <circle cx="35" cy="35" r="35" opacity=".2"/>
        <g fill-rule="nonzero">
            <path d="M47.928 29.322a1.407 1.407 0 0 1 1.952.545c.393.706.157 1.606-.528 2.01l-13.42 7.934c-.441.26-.983.26-1.424 0l-13.42-7.933c-.685-.405-.921-1.305-.528-2.011a1.407 1.407 0 0 1 1.952-.545l12.708 7.513 12.708-7.513z" style="mix-blend-mode:multiply"/>
            <path d="M22.9 26.747a.447.447 0 0 0-.44.453v17c0 .25.197.453.44.453h24.2c.243 0 .44-.203.44-.453v-17a.447.447 0 0 0-.44-.453H22.9zm0-2.947h24.2c1.823 0 3.3 1.522 3.3 3.4v17c0 1.878-1.477 3.4-3.3 3.4H22.9c-1.823 0-3.3-1.522-3.3-3.4v-17c0-1.878 1.477-3.4 3.3-3.4z" style="mix-blend-mode:multiply"/>
        </g>
    </g>
</svg>
