<?xml version="1.0" encoding="utf-8"?>
<!-- Generator: Adobe Illustrator 22.1.0, SVG Export Plug-In . SVG Version: 6.00 Build 0)  -->
<svg version="1.1" id="Layer_1" xmlns="http://www.w3.org/2000/svg" xmlns:xlink="http://www.w3.org/1999/xlink" x="0px" y="0px"
	 viewBox="0 0 50 50" style="enable-background:new 0 0 50 50;" xml:space="preserve">
<style type="text/css">
	.st0{fill:#53596C;}
	.st1{fill:#1B1F2E;}
</style>
<g>
	<path class="st0" d="M15.5,20.4v2.5l9.1,5.2c0.2,0.1,0.4,0.1,0.5,0.1s0.4,0,0.5-0.1l8.8-5v-2.5L25.1,26L15.5,20.4L15.5,20.4"/>
	<path class="st0" d="M15.5,20.4v-1.6c0-0.2,0.1-0.3,0.3-0.3h18.3c0.2,0,0.3,0.1,0.3,0.3v1.7l0.3-0.2c0.2-0.1,0.4-0.1,0.5-0.1
		c0.4,0,0.7,0.2,0.9,0.5c0.3,0.5,0.1,1.2-0.4,1.5L34.3,23v8.3c0,0.2-0.1,0.3-0.3,0.3H15.8c-0.2,0-0.3-0.1-0.3-0.3v-8.4l-1-0.6
		c-0.5-0.3-0.7-1-0.4-1.5c0.2-0.4,0.5-0.6,0.9-0.6C15.2,20.1,15.3,20.3,15.5,20.4 M34.2,16.3H15.8c-1.3,0-2.5,1.2-2.5,2.5v12.5
		c0,1.4,1.1,2.5,2.5,2.5h18.3c1.4,0,2.5-1.1,2.5-2.5V18.8C36.7,17.5,35.5,16.3,34.2,16.3"/>
	<path class="st1" d="M15,20.1c-0.4,0-0.7,0.2-0.9,0.5c-0.3,0.6-0.2,1.3,0.4,1.6l1,0.6v-2.5C15.3,20.3,15.2,20.1,15,20.1 M35.3,20.1
		c-0.2,0-0.4,0-0.5,0.1l-0.3,0.2V23l1.4-0.8c0.5-0.3,0.7-1,0.4-1.5C36.1,20.4,35.7,20.1,35.3,20.1"/>
</g>
</svg>
