<?xml version="1.0" encoding="UTF-8"?>
<svg width="70px" height="70px" viewBox="0 0 70 70" version="1.1" xmlns="http://www.w3.org/2000/svg" xmlns:xlink="http://www.w3.org/1999/xlink">
    <!-- Generator: Sketch 51.1 (57501) - http://www.bohemiancoding.com/sketch -->
    <title>icn/Log Container</title>
    <desc>Created with Sketch.</desc>
    <defs></defs>
    <g id="Page-1" stroke="none" stroke-width="1" fill="none" fill-rule="evenodd">
        <g id="Style-Guide" transform="translate(-295.000000, -2089.000000)" fill="#DF8DD4">
            <g id="icn/log-contained" transform="translate(295.000000, 2089.000000)">
                <circle id="Oval-11" opacity="0.2" cx="35" cy="35" r="35"></circle>
                <g id="Group-15" stroke-width="1" transform="translate(21.000000, 22.400000)">
                    <path d="M5.46976744,3.87692308 C5.46976744,3.03081419 4.77566992,2.34418605 3.92,2.34418605 C3.06433008,2.34418605 2.37023256,3.03081419 2.37023256,3.87692308 C2.37023256,4.72356177 3.06395421,5.40966011 3.92,5.40966011 C4.77604579,5.40966011 5.46976744,4.72356177 5.46976744,3.87692308 Z M7.84,3.87692308 C7.84,6.01821998 6.08508909,7.75384615 3.92,7.75384615 C1.75491091,7.75384615 0,6.01821998 0,3.87692308 C0,1.73627678 1.75516461,0 3.92,0 C6.08483539,0 7.84,1.73627678 7.84,3.87692308 Z" id="Stroke-1" fill-rule="nonzero" style="mix-blend-mode: multiply;"></path>
                    <path d="M11.76,5.23384615 C11.0022653,5.23384615 10.388,4.626331 10.388,3.87692308 C10.388,3.12751515 11.0022653,2.52 11.76,2.52 L27.44,2.52 C28.1977347,2.52 28.812,3.12751515 28.812,3.87692308 C28.812,4.626331 28.1977347,5.23384615 27.44,5.23384615 L11.76,5.23384615 Z" id="Line" fill-rule="nonzero" style="mix-blend-mode: multiply;"></path>
                    <path d="M5.46976744,12.6 C5.46976744,11.7538911 4.77566992,11.067263 3.92,11.067263 C3.06433008,11.067263 2.37023256,11.7538911 2.37023256,12.6 C2.37023256,13.4466387 3.06395421,14.132737 3.92,14.132737 C4.77604579,14.132737 5.46976744,13.4466387 5.46976744,12.6 Z M7.84,12.6 C7.84,14.7412969 6.08508909,16.4769231 3.92,16.4769231 C1.75491091,16.4769231 0,14.7412969 0,12.6 C0,10.4593537 1.75516461,8.72307692 3.92,8.72307692 C6.08483539,8.72307692 7.84,10.4593537 7.84,12.6 Z" id="Stroke-5" fill-rule="nonzero" style="mix-blend-mode: multiply;"></path>
                    <path d="M11.76,13.9569231 C11.0022653,13.9569231 10.388,13.3494079 10.388,12.6 C10.388,11.8505921 11.0022653,11.2430769 11.76,11.2430769 L27.44,11.2430769 C28.1977347,11.2430769 28.812,11.8505921 28.812,12.6 C28.812,13.3494079 28.1977347,13.9569231 27.44,13.9569231 L11.76,13.9569231 Z" id="Line-Copy" fill-rule="nonzero" style="mix-blend-mode: multiply;"></path>
                    <path d="M5.46976744,21.3230769 C5.46976744,20.476968 4.77566992,19.7903399 3.92,19.7903399 C3.06433008,19.7903399 2.37023256,20.476968 2.37023256,21.3230769 C2.37023256,22.1697156 3.06395421,22.855814 3.92,22.855814 C4.77604579,22.855814 5.46976744,22.1697156 5.46976744,21.3230769 Z M7.84,21.3230769 C7.84,23.4643738 6.08508909,25.2 3.92,25.2 C1.75491091,25.2 0,23.4643738 0,21.3230769 C0,19.1824306 1.75516461,17.4461538 3.92,17.4461538 C6.08483539,17.4461538 7.84,19.1824306 7.84,21.3230769 Z" id="Stroke-9" fill-rule="nonzero" style="mix-blend-mode: multiply;"></path>
                    <path d="M11.76,22.68 C11.0022653,22.68 10.388,22.0724848 10.388,21.3230769 C10.388,20.573669 11.0022653,19.9661538 11.76,19.9661538 L27.44,19.9661538 C28.1977347,19.9661538 28.812,20.573669 28.812,21.3230769 C28.812,22.0724848 28.1977347,22.68 27.44,22.68 L11.76,22.68 Z" id="Line-Copy-2" fill-rule="nonzero" style="mix-blend-mode: multiply;"></path>
                </g>
            </g>
        </g>
    </g>
</svg>