<svg xmlns="http://www.w3.org/2000/svg" width="70" height="70" viewBox="0 0 70 70">
    <g fill="#DF8DD4" fill-rule="evenodd">
        <circle cx="35" cy="35" r="35" opacity=".2"/>
        <g fill-rule="nonzero">
            <path d="M26.47 26.277c0-.846-.694-1.533-1.55-1.533-.856 0-1.55.687-1.55 1.533 0 .847.694 1.533 1.55 1.533.856 0 1.55-.686 1.55-1.533zm2.37 0c0 2.141-1.755 3.877-3.92 3.877S21 28.418 21 26.277c0-2.14 1.755-3.877 3.92-3.877s3.92 1.736 3.92 3.877zM32.76 27.634a1.365 1.365 0 0 1-1.372-1.357c0-.75.614-1.357 1.372-1.357h15.68c.758 0 1.372.608 1.372 1.357 0 .75-.614 1.357-1.372 1.357H32.76zM26.47 35c0-.846-.694-1.533-1.55-1.533-.856 0-1.55.687-1.55 1.533 0 .847.694 1.533 1.55 1.533.856 0 1.55-.686 1.55-1.533zm2.37 0c0 2.141-1.755 3.877-3.92 3.877S21 37.14 21 35c0-2.14 1.755-3.877 3.92-3.877S28.84 32.86 28.84 35zM32.76 36.357A1.365 1.365 0 0 1 31.388 35c0-.75.614-1.357 1.372-1.357h15.68c.758 0 1.372.608 1.372 1.357 0 .75-.614 1.357-1.372 1.357H32.76zM26.47 43.723c0-.846-.694-1.533-1.55-1.533-.856 0-1.55.687-1.55 1.533 0 .847.694 1.533 1.55 1.533.856 0 1.55-.686 1.55-1.533zm2.37 0c0 2.141-1.755 3.877-3.92 3.877S21 45.864 21 43.723c0-2.14 1.755-3.877 3.92-3.877s3.92 1.736 3.92 3.877zM32.76 45.08a1.365 1.365 0 0 1-1.372-1.357c0-.75.614-1.357 1.372-1.357h15.68c.758 0 1.372.608 1.372 1.357 0 .75-.614 1.357-1.372 1.357H32.76z" style="mix-blend-mode:multiply"/>
        </g>
    </g>
</svg>
