<svg xmlns="http://www.w3.org/2000/svg" width="650" height="180" viewBox="0 0 650 180">
    <g fill="none" fill-rule="evenodd">
        <path fill="#2EC87A" d="M334.882 48.554h-.036a50.94 50.94 0 0 0-24.268 6.146 13.96 13.96 0 0 1 .966 5.121v40.067c.002-3.221.65-6.238 1.83-9.022 1.765-4.167 4.766-7.788 8.509-10.32 3.752-2.533 8.16-3.987 12.976-3.992 3.218.002 6.234.651 9.016 1.832 4.164 1.765 7.781 4.768 10.312 8.516 2.53 3.754 3.983 8.165 3.987 12.986v59.5c0 7.73 6.265 14 13.989 14 7.725 0 13.99-6.27 13.99-14 0 7.73-6.265 14-13.99 14-7.724 0-13.99-6.27-13.99-14v-59.5a51.11 51.11 0 0 1 8.8-28.685 51.944 51.944 0 0 1 5.19-6.483 51.794 51.794 0 0 0-8.642-7.36 50.999 50.999 0 0 0-28.639-8.806m51.27 51.334v59.5-59.5"/>
        <path fill="#DF8DD4" d="M409.49 48.554h-.036a50.94 50.94 0 0 0-19.941 4.06 51.617 51.617 0 0 0-17.35 12.106 51.593 51.593 0 0 1 9.932 15.197 51.046 51.046 0 0 1 4.057 19.97 23.012 23.012 0 0 1 1.83-9.021c1.765-4.167 4.766-7.788 8.51-10.32 3.752-2.533 8.16-3.987 12.975-3.992 3.219.002 6.235.651 9.016 1.832 4.164 1.765 7.782 4.768 10.312 8.516 2.531 3.754 3.984 8.165 3.987 12.986v60.666c0 7.73 6.265 14 13.99 14 7.725 0 13.988-6.27 13.988-14V99.888a51.046 51.046 0 0 0-4.056-19.971A51.674 51.674 0 0 0 438.13 57.36a51.005 51.005 0 0 0-28.64-8.806"/>
        <path fill="#286F65" d="M372.164 64.72a51.912 51.912 0 0 0-5.19 6.482 51.104 51.104 0 0 0-8.8 28.685v59.5c0 7.732 6.264 14 13.99 14 7.725 0 13.989-6.268 13.989-14v-59.5a51.044 51.044 0 0 0-4.057-19.97 51.601 51.601 0 0 0-9.932-15.197"/>
        <path fill="#F7564C" d="M644.227 19.581a14.716 14.716 0 0 1-1.292 4.406c-.422.888-1.72 3.42-4.368 6.674-2.643 3.248-6.662 7.217-12.376 10.795-3.181 1.994-6.883 3.861-11.107 5.418v115.728c0 8.055 6.524 14.583 14.572 14.583 8.047 0 14.571-6.528 14.571-14.583V19.582"/>
        <path fill="#0AC8FF" d="M629.666 3c-5.36 0-10.504 2.948-13.087 8.007-.107.177-.52.816-1.303 1.684-1.376 1.513-3.817 3.725-8.094 5.673-4.289 1.932-10.508 3.662-19.797 3.673-8.113 0-14.687 6.582-14.687 14.7 0 8.12 6.574 14.7 14.687 14.7h.033c9.701 0 18.068-1.402 25.125-3.685.866-.28 1.713-.573 2.54-.879v-29.17c0-8.053 6.525-14.583 14.572-14.583 8.049 0 14.572 6.53 14.572 14.583v1.879c.794-6.151-2.39-12.374-8.293-15.168A14.63 14.63 0 0 0 629.666 3"/>
        <path fill="#0A434C" d="M629.656 3.12c-8.048 0-14.572 6.53-14.572 14.583v29.17c4.224-1.557 7.926-3.422 11.107-5.417 5.714-3.577 9.733-7.546 12.376-10.794 2.648-3.255 3.946-5.787 4.368-6.675a14.716 14.716 0 0 0 1.292-4.405v-1.879c0-8.053-6.524-14.583-14.571-14.583"/>
        <path fill="#FAAE3C" d="M69.456 3.126c-1.647 0-3.292.05-4.937.15-12.347.76-24.985 4.28-36.098 12.055-5.515 3.897-10.637 8.947-14.48 15.33-3.739 6.145-6.084 13.667-6.194 21.235l-.015.196c-.026.344-.043.672-.051.962-.028.622-.026 1.173-.026 1.746a40.63 40.63 0 0 0 .175 3.245c.194 2.115.555 4.171 1.065 6.195.991 4.052 2.648 7.948 4.786 11.513a43.501 43.501 0 0 0 7.713 9.465c2.92 2.711 6.081 4.937 9.295 6.797a55.624 55.624 0 0 0 5.814 2.9 60.678 60.678 0 0 1-5.425-2.706c-3.245-1.846-6.442-4.061-9.4-6.774a43.475 43.475 0 0 1-7.822-9.501C11.69 72.346 10.003 68.424 9 64.34a40.14 40.14 0 0 1-1.078-6.242 41.193 41.193 0 0 1-.175-3.267c.001-.578-.002-1.13.027-1.757.01-.293.027-.62.052-.967l.045-.555.093-.858c.951-7.122 7.032-12.298 14.02-12.298.624 0 1.256.042 1.893.126 7.655 1.024 13.06 7.989 12.197 15.633l.006-.046.006-.036-.002.075v.33c.01.274.026.578.061.9.064.64.185 1.316.366 1.971.326 1.324.9 2.557 1.608 3.727 1.414 2.328 3.732 4.417 6.943 6.204 1.152.676 2.48 1.251 3.869 1.794-1.451-.583-2.835-1.203-4.052-1.911-3.124-1.803-5.377-3.88-6.751-6.187-.69-1.156-1.238-2.379-1.55-3.685-.17-.646-.29-1.312-.347-1.94a12.815 12.815 0 0 1-.055-.881l.004-.321.001-.069-.005.038-.04.341.124-1.889c.009-2.453.667-4.823 2.1-7.241 1.426-2.404 3.665-4.765 6.487-6.762 5.661-4.038 13.404-6.49 21.402-6.957a52.281 52.281 0 0 1 3.365-.107c6.954 0 13.794 1.374 19.524 4.117 3.314 1.584 6.264 3.6 8.512 5.905 2.276 2.298 3.825 4.826 4.65 7.342l.02.064c1.933 5.971 7.466 9.771 13.417 9.771 1.44 0 2.905-.223 4.348-.69 7.41-2.403 11.474-10.362 9.073-17.78a46.101 46.101 0 0 0-4.707-10.11c-1.94-3.1-4.198-5.9-6.645-8.404-4.906-5.018-10.573-8.798-16.461-11.637C95.443 7.252 89.28 5.384 83.09 4.3a79.618 79.618 0 0 0-13.635-1.173M39.688 96.212l.751.287.605.208a63.49 63.49 0 0 1-1.356-.495m-20.11 23.448c-1.476 0-2.978.227-4.459.703-7.662 2.463-11.878 10.675-9.417 18.342a46.266 46.266 0 0 0 5.195 10.964c2.152 3.311 4.634 6.268 7.306 8.89 5.375 5.205 11.463 9.098 17.783 11.988 6.334 2.873 12.928 4.75 19.578 5.789a81.93 81.93 0 0 0 10.002.93c.855.024 1.695.036 2.529.036 2.454 0 4.839-.104 7.3-.287 6.533-.492 13.148-1.74 19.688-3.942 6.526-2.208 13.027-5.457 18.902-10.169 5.861-4.671 11.017-10.962 14.251-18.223a48.305 48.305 0 0 0 3.465-11.215c.33-1.9.576-3.8.701-5.683.041-.687.077-1.349.102-2.015-.844 7.18-6.936 12.761-14.342 12.78h-.038c-7.704 0-14.01-6.026-14.452-13.634-.011.286-.026.573-.044.838-.058.868-.177 1.7-.312 2.517a19.364 19.364 0 0 1-1.405 4.541c-1.277 2.815-3.26 5.318-6.001 7.512-5.468 4.426-13.89 7.133-22.743 7.77a69.34 69.34 0 0 1-4.962.188c-.582 0-1.157-.01-1.717-.027a52.793 52.793 0 0 1-6.435-.616c-4.228-.667-8.313-1.868-12.01-3.557-3.687-1.692-6.968-3.89-9.507-6.363a23.574 23.574 0 0 1-3.17-3.854 17.166 17.166 0 0 1-1.869-3.927l-.085-.257c-2.016-6.123-7.709-10.019-13.834-10.019"/>
        <path fill="#0AC8FF" d="M535.508 47.186h-.039a66.955 66.955 0 0 0-25.567 5.045c-11.824 4.884-21.891 13.026-29.048 23.356a63.986 63.986 0 0 0-8.372 17.003 63.621 63.621 0 0 0-3.001 19.346c-.008 10.433 2.08 20.035 5.958 28.367a58.823 58.823 0 0 0 11.325 16.401c6.821 6.978 15.066 12.004 23.81 15.27 8.758 3.268 18.047 4.817 27.317 4.82a81.827 81.827 0 0 0 21.927-2.98c7.13-1.99 14.01-4.982 20.305-9.062 6.485-4.204 8.336-12.872 4.135-19.361a13.974 13.974 0 0 0-11.753-6.39 13.895 13.895 0 0 0-7.593 2.252c-3.702 2.402-7.995 4.305-12.606 5.59-4.604 1.285-9.518 1.951-14.396 1.951h-.043c-5.438 0-10.821-.828-15.699-2.418-3.666-1.195-7.044-2.812-10.012-4.795-4.458-2.99-7.993-6.733-10.535-11.458a32.467 32.467 0 0 1-2.254-5.296h-1.908c-7.758 0-14.046-6.294-14.046-14.058s6.288-14.058 14.046-14.058h3.403c2.877-6.1 7.478-11.374 13.235-15.167 6.086-4.004 13.387-6.354 21.384-6.358 5.354.003 10.134 1.036 14.382 2.833 6.36 2.7 11.561 7.152 15.243 12.803a35.322 35.322 0 0 1 3.077 5.889h16.708c7.272 0 13.252 5.527 13.975 12.614-.352-16.566-6.882-31.955-17.882-43.26a61.783 61.783 0 0 0-20.21-13.829c-7.701-3.269-16.267-5.05-25.266-5.05"/>
        <path fill="#2EC87A" d="M568.184 96.71h-67.322c-.163.346-.32.693-.47 1.044a35.499 35.499 0 0 0-2.933 14.182c0 3.808.419 7.176 1.142 10.177.226.939.482 1.844.767 2.715h85.523c7.758 0 14.048-6.295 14.048-14.059 0-.487-.026-.97-.074-1.444.01.48.015.961.015 1.444 0 7.733-6.263 14-13.989 14-7.725 0-13.989-6.267-13.989-14-.002-5.032-.966-9.772-2.718-14.058"/>
        <path fill="#029D7A" d="M584.891 96.71h-16.707c1.752 4.287 2.716 9.027 2.718 14.06 0 7.732 6.264 14 13.99 14 7.725 0 13.988-6.268 13.988-14 0-.484-.004-.964-.015-1.445-.723-7.086-6.703-12.614-13.974-12.614m-84.029 0h-3.403c-7.758 0-14.047 6.294-14.047 14.058s6.29 14.059 14.047 14.059h1.909a35.47 35.47 0 0 1-.767-2.715c-.723-3.001-1.142-6.37-1.142-10.177a35.499 35.499 0 0 1 3.403-15.225"/>
        <path fill="#FA6E0A" d="M297.555 45.821c-7.725 0-13.989 6.269-13.989 14v40.066a51.104 51.104 0 0 1 8.8-28.685A51.726 51.726 0 0 1 310.578 54.7c-2.042-5.2-7.104-8.879-13.024-8.879"/>
        <path fill="#2D5605" d="M310.579 54.7a51.704 51.704 0 0 0-18.214 16.503 51.104 51.104 0 0 0-8.8 28.684v59.5c0 7.732 6.264 14 13.99 14 7.725 0 13.989-6.268 13.989-14V59.822c0-1.809-.343-3.536-.965-5.122"/>
        <path fill="#FA6E0A" d="M209.436 44.964c7.137.668 12.722 6.68 12.722 13.996 0 7.35-5.633 13.381-12.815 14.005a37.328 37.328 0 0 1 14.016 2.945c6.725 2.843 12.491 7.63 16.544 13.64 4.053 6.017 6.403 13.178 6.409 21.014v.627a37.474 37.474 0 0 1-2.947 14.633c-2.841 6.73-7.624 12.499-13.628 16.557-6.014 4.056-13.169 6.407-20.999 6.413h-.627c-5.226-.003-10.133-1.051-14.621-2.95-6.725-2.843-12.49-7.63-16.543-13.639-3.949-5.863-6.281-12.81-6.404-20.41-.622 7.188-6.65 12.827-13.995 12.827-7.31 0-13.316-5.59-13.985-12.731a65.493 65.493 0 0 0 5.154 24.84 65.774 65.774 0 0 0 23.734 28.851 65.306 65.306 0 0 0 36.632 11.212h.67a65.35 65.35 0 0 0 25.505-5.162 65.744 65.744 0 0 0 28.829-23.752 65.424 65.424 0 0 0 11.203-36.689v-.627a65.48 65.48 0 0 0-5.158-25.54A65.772 65.772 0 0 0 245.4 56.172a65.297 65.297 0 0 0-35.963-11.208"/>
        <path fill="#F54B02" d="M208.766 44.96h-.028c-.104 0-.21.002-.313.004a13.973 13.973 0 0 0-.314-.004h-.015a65.355 65.355 0 0 0-25.505 5.162 65.747 65.747 0 0 0-28.828 23.752 65.424 65.424 0 0 0-11.203 36.69v.627c0 .233 0 .467.003.7.67 7.141 6.675 12.73 13.986 12.73 7.344 0 13.371-5.638 13.993-12.826a34.906 34.906 0 0 1-.004-.604v-.628a37.449 37.449 0 0 1 2.947-14.633c2.84-6.73 7.624-12.499 13.629-16.556 6.013-4.056 13.167-6.408 20.997-6.414.105 0 .21 0 .314-.003.104.002.209.003.313.003.202 0 .405.002.605.005 7.182-.624 12.816-6.656 12.816-14.005 0-7.316-5.587-13.328-12.722-13.996a64.192 64.192 0 0 0-.67-.004"/>
        <path fill="#F23B12" d="M21.984 38.397c-6.987 0-13.068 5.177-14.018 12.298l-.094.858-.045.555c-.025.348-.043.676-.052.968-.028.626-.026 1.178-.027 1.756.018 1.117.075 2.203.175 3.267.198 2.13.558 4.203 1.078 6.242 1.002 4.083 2.69 8.005 4.854 11.593 2.172 3.588 4.867 6.797 7.823 9.501 2.958 2.713 6.156 4.928 9.4 6.775a60.978 60.978 0 0 0 5.425 2.705 84.03 84.03 0 0 0 3.184 1.297c.453.171.905.336 1.357.495 3.048 1.04 6.094 1.92 9.092 2.56 1.602.35 3.205.695 4.78.928 1.586.27 3.17.522 4.73.683 1.564.186 3.136.383 4.675.475l4.374.327c4.825.308 9.487.959 13.793 2.008 4.287 1.065 8.19 2.564 11.348 4.462 3.158 1.908 5.525 4.156 7.155 6.689a18.083 18.083 0 0 1 1.903 4.08c.45 1.432.739 2.984.793 4.388.021.389.01.996-.015 1.607.443 7.608 6.748 13.634 14.452 13.634h.037c7.406-.019 13.499-5.6 14.343-12.78.043-1.191.05-2.4-.01-3.801-.195-4.102-.94-8.01-2.152-11.83a46.943 46.943 0 0 0-5.1-10.844c-4.332-6.763-10.347-12.096-16.627-15.835-6.313-3.758-12.864-6.096-19.254-7.68-6.4-1.548-12.695-2.364-18.858-2.75l-3.863-.277c-1.213-.063-2.373-.218-3.542-.351-1.184-.112-2.317-.299-3.447-.488-1.152-.157-2.238-.402-3.328-.634-2.193-.454-4.228-1.075-6.188-1.73a95.768 95.768 0 0 1-1.203-.473c-1.389-.543-2.718-1.118-3.87-1.794-3.21-1.785-5.528-3.876-6.943-6.204-.707-1.17-1.28-2.403-1.607-3.727-.18-.655-.3-1.331-.366-1.972a14.26 14.26 0 0 1-.062-.9l.001-.33.001-.073-.005.035-.006.046c.862-7.644-4.542-14.61-12.198-15.633a14.466 14.466 0 0 0-1.893-.126"/>
    </g>
</svg>
