<?xml version="1.0" encoding="UTF-8"?>
<svg width="70px" height="70px" viewBox="0 0 70 70" version="1.1" xmlns="http://www.w3.org/2000/svg" xmlns:xlink="http://www.w3.org/1999/xlink">
    <!-- Generator: Sketch 51.1 (57501) - http://www.bohemiancoding.com/sketch -->
    <title>icn/Profile Container</title>
    <desc>Created with Sketch.</desc>
    <defs></defs>
    <g id="Page-1" stroke="none" stroke-width="1" fill="none" fill-rule="evenodd">
        <g id="Style-Guide" transform="translate(-535.000000, -2089.000000)" fill="#0AC8FF">
            <g id="icn/profile-contained" transform="translate(535.000000, 2089.000000)">
                <circle id="Oval-11" opacity="0.2015625" cx="35" cy="35" r="35"></circle>
                <g id="Group-13" stroke-width="1" transform="translate(21.000000, 18.200000)" opacity="0.900000036">
                    <path d="M3.01538462,31.4322581 C3.01538462,32.2104451 2.38858327,32.8412903 1.61538462,32.8412903 C0.842185966,32.8412903 0.215384615,32.2104451 0.215384615,31.4322581 C0.215384615,23.7286884 6.38441827,17.4812903 14,17.4812903 C21.6155817,17.4812903 27.7846154,23.7286884 27.7846154,31.4322581 C27.7846154,32.2104451 27.157814,32.8412903 26.3846154,32.8412903 C25.6114167,32.8412903 24.9846154,32.2104451 24.9846154,31.4322581 C24.9846154,25.2811697 20.0652901,20.2993548 14,20.2993548 C7.93470994,20.2993548 3.01538462,25.2811697 3.01538462,31.4322581 Z" id="Shape" fill-rule="nonzero" style="mix-blend-mode: multiply;"></path>
                    <path d="M17.8446154,20.5935484 C17.8446154,19.7375426 18.5340969,19.0436129 19.3846154,19.0436129 C20.2351339,19.0436129 20.9246154,19.7375426 20.9246154,20.5935484 C20.9246154,24.4425864 17.8243647,27.5628387 14,27.5628387 C10.1756353,27.5628387 7.07538458,24.4425864 7.07538458,20.5935484 C7.07538458,19.7375426 7.76486608,19.0436129 8.61538462,19.0436129 C9.46590315,19.0436129 10.1553846,19.7375426 10.1553846,20.5935484 C10.1553846,22.7305749 11.8766724,24.4629677 14,24.4629677 C16.1233276,24.4629677 17.8446154,22.7305749 17.8446154,20.5935484 Z" id="Shape" fill-rule="nonzero" style="mix-blend-mode: multiply;"></path>
                    <path d="M14,19.8348387 C8.76603991,19.8348387 4.52307692,15.5645018 4.52307692,10.2967742 C4.52307692,5.02904662 8.76603991,0.758709677 14,0.758709677 C19.2339601,0.758709677 23.4769231,5.02904662 23.4769231,10.2967742 C23.4769231,15.5645018 19.2339601,19.8348387 14,19.8348387 Z M14,17.0167742 C17.6875628,17.0167742 20.6769231,14.0081277 20.6769231,10.2967742 C20.6769231,6.58542067 17.6875628,3.57677419 14,3.57677419 C10.3124372,3.57677419 7.32307692,6.58542067 7.32307692,10.2967742 C7.32307692,14.0081277 10.3124372,17.0167742 14,17.0167742 Z" id="Oval" fill-rule="nonzero" style="mix-blend-mode: multiply;"></path>
                </g>
            </g>
        </g>
    </g>
</svg>