<?xml version="1.0" encoding="UTF-8"?>
<svg width="70px" height="70px" viewBox="0 0 70 70" version="1.1" xmlns="http://www.w3.org/2000/svg" xmlns:xlink="http://www.w3.org/1999/xlink">
    <!-- Generator: Sketch 51.1 (57501) - http://www.bohemiancoding.com/sketch -->
    <title>icn/Scan Container</title>
    <desc>Created with Sketch.</desc>
    <defs></defs>
    <g id="Page-1" stroke="none" stroke-width="1" fill="none" fill-rule="evenodd">
        <g id="Style-Guide" transform="translate(-415.000000, -2089.000000)" fill="#FAAE3C">
            <g id="icn/scan-contained" transform="translate(415.000000, 2089.000000)">
                <circle id="Oval-11" opacity="0.195" cx="35" cy="35" r="35"></circle>
                <g id="Group-16" stroke-width="1" transform="translate(21.000000, 21.000000)">
                    <path d="M3,3 L3,9 L9,9 L9,3 L3,3 Z M2,0 L10,0 C11.1045695,0 12,0.8954305 12,2 L12,10 C12,11.1045695 11.1045695,12 10,12 L2,12 C0.8954305,12 0,11.1045695 0,10 L0,2 C0,0.8954305 0.8954305,0 2,0 Z" id="Rectangle-8" fill-rule="nonzero" style="mix-blend-mode: multiply;"></path>
                    <path d="M3,19 L3,25 L9,25 L9,19 L3,19 Z M2,16 L10,16 C11.1045695,16 12,16.8954305 12,18 L12,26 C12,27.1045695 11.1045695,28 10,28 L2,28 C0.8954305,28 0,27.1045695 0,26 L0,18 C0,16.8954305 0.8954305,16 2,16 Z" id="Rectangle-8-Copy-2" fill-rule="nonzero" style="mix-blend-mode: multiply;"></path>
                    <path d="M19,3 L19,9 L25,9 L25,3 L19,3 Z M18,0 L26,0 C27.1045695,0 28,0.8954305 28,2 L28,10 C28,11.1045695 27.1045695,12 26,12 L18,12 C16.8954305,12 16,11.1045695 16,10 L16,2 C16,0.8954305 16.8954305,0 18,0 Z" id="Rectangle-8-Copy" fill-rule="nonzero" style="mix-blend-mode: multiply;"></path>
                    <path d="M19,19 L19,25 L25,25 L25,19 L19,19 Z M18,16 L26,16 C27.1045695,16 28,16.8954305 28,18 L28,26 C28,27.1045695 27.1045695,28 26,28 L18,28 C16.8954305,28 16,27.1045695 16,26 L16,18 C16,16.8954305 16.8954305,16 18,16 Z" id="Rectangle-8-Copy-3" fill-rule="nonzero" style="mix-blend-mode: multiply;"></path>
                </g>
            </g>
        </g>
    </g>
</svg>