<svg xmlns="http://www.w3.org/2000/svg" width="120" height="120" viewBox="0 0 120 120">
    <g fill="none" fill-rule="nonzero" transform="translate(32 11)">
        <rect width="57.69" height="99.69" x="-.845" y="-.845" fill="#E5E5E5" stroke="#FFF" stroke-width="1.69" rx="6.759"/>
        <rect width="50" height="80.793" x="3" y="4" fill="#FFF" rx="3.379"/>
        <ellipse cx="27.545" cy="90.534" fill="#D4D4D4" rx="2.545" ry="2.534"/>
        <ellipse cx="28.242" cy="76.224" fill="#0AC8FF" rx="4.242" ry="4.224"/>
        <rect width="25.455" height="1.69" x="15" y="59" fill="#D9D9D9" rx=".845"/>
        <rect width="25.455" height="1.69" x="15" y="62" fill="#D9D9D9" rx=".845"/>
        <rect width="28.848" height="3.034" x="14" y="8" fill="#D9D9D9" rx="1"/>
        <rect width="39.03" height="2.241" x="8" y="12" fill="#D9D9D9" rx="1.121"/>
        <g fill="#777">
            <path d="M28.058 40.947a.6.6 0 0 1-.6-.598v-2.767h-9.164a.6.6 0 1 1 0-1.196h9.764a.6.6 0 0 1 .6.598v3.365a.6.6 0 0 1-.6.598zM31.339 47.218h-3.345a.598.598 0 0 1-.608-.588v-3.385c0-.325.272-.588.608-.588.336 0 .608.263.608.588v2.797h2.737c.336 0 .608.264.608.588a.598.598 0 0 1-.608.588zM37.63 47.218h-3.384a.58.58 0 0 1-.589-.57.58.58 0 0 1 .589-.57h3.383a.58.58 0 0 1 .589.57.58.58 0 0 1-.589.57zM38.147 40.947a.63.63 0 0 1-.642-.618v-2.708H34.94v2.708a.63.63 0 0 1-.641.618.63.63 0 0 1-.642-.618v-3.325a.63.63 0 0 1 .642-.618h3.848a.63.63 0 0 1 .641.618v3.325a.63.63 0 0 1-.641.618zM22.184 31.825h-3.848a.641.641 0 0 1-.642-.641v-3.848c0-.354.288-.642.642-.642h3.848c.354 0 .641.288.641.642v3.848a.641.641 0 0 1-.641.641zm-3.207-1.282h2.566v-2.566h-2.566v2.566zM38.147 31.825h-3.848a.641.641 0 0 1-.642-.641v-3.848c0-.354.287-.642.642-.642h3.848c.354 0 .641.288.641.642v3.848a.641.641 0 0 1-.641.641zm-3.207-1.282h2.565v-2.566H34.94v2.566zM22.184 47.788h-3.848a.641.641 0 0 1-.642-.641v-3.848c0-.355.288-.642.642-.642h3.848c.354 0 .641.287.641.642v3.848a.641.641 0 0 1-.641.641zm-3.207-1.283h2.566V43.94h-2.566v2.565zM27.956 31.825c-.315 0-.57-.287-.57-.641v-3.848c0-.354.255-.642.57-.642.315 0 .57.288.57.642v3.848c0 .354-.255.641-.57.641zM22.184 34.676h-3.848c-.354 0-.642-.255-.642-.57 0-.315.288-.57.642-.57h3.848c.354 0 .641.255.641.57 0 .315-.287.57-.641.57zM25.106 34.676a.58.58 0 0 1-.57-.591v-6.8a.58.58 0 0 1 .57-.59.58.58 0 0 1 .57.59v6.8a.58.58 0 0 1-.57.59zM31.339 34.676h-3.345a.6.6 0 0 1-.608-.591.6.6 0 0 1 .608-.592h2.737v-6.207a.6.6 0 0 1 .608-.592.6.6 0 0 1 .608.592v6.799a.6.6 0 0 1-.608.59zM38.147 34.676h-3.848c-.355 0-.642-.255-.642-.57 0-.315.287-.57.642-.57h3.848c.354 0 .641.255.641.57 0 .315-.287.57-.641.57z"/>
            <path d="M37.627 44.367h-6.8a.603.603 0 0 1-.59-.614V37c0-.34.264-.614.59-.614.327 0 .592.275.592.614v6.14h6.208c.326 0 .59.274.59.613 0 .34-.264.614-.59.614zM25.085 40.377h-6.8a.58.58 0 0 1-.59-.57.58.58 0 0 1 .59-.57h6.8a.58.58 0 0 1 .59.57.58.58 0 0 1-.59.57zM25.106 47.218a.58.58 0 0 1-.57-.588v-3.385a.58.58 0 0 1 .57-.588.58.58 0 0 1 .57.588v3.385a.58.58 0 0 1-.57.588z"/>
        </g>
    </g>
</svg>
